<svg width="404" height="128" viewBox="0 0 404 128" fill="none" xmlns="http://www.w3.org/2000/svg">
<path d="M86.0439 94.0601H41.9556C37.5283 94.0601 33.9393 90.4711 33.9393 86.0439V41.9556C33.9393 37.5283 37.5283 33.9394 41.9556 33.9394H86.0441C90.4714 33.9394 94.0604 37.5283 94.0604 41.9556V86.0442C94.0601 90.4711 90.4711 94.0601 86.0439 94.0601Z" fill="#4BD7C8"/>
<path d="M86.0439 88.0482H41.9556C40.8488 88.0482 39.9516 87.1509 39.9516 86.0442V41.9556C39.9516 40.8488 40.8488 39.9516 41.9556 39.9516H86.0442C87.1509 39.9516 88.0482 40.8488 88.0482 41.9556V86.0442C88.0482 87.1509 87.1509 88.0482 86.0439 88.0482Z" fill="#99E9DF"/>
<path d="M9.89121 51.9748C12.1045 51.9748 13.8987 50.1806 13.8987 47.9673C13.8987 45.754 12.1045 43.9598 9.89121 43.9598C7.67794 43.9598 5.88373 45.754 5.88373 47.9673C5.88373 50.1806 7.67794 51.9748 9.89121 51.9748Z" fill="#4BD7C8"/>
<path d="M118.11 84.0397C120.323 84.0397 122.117 82.2455 122.117 80.0322C122.117 77.8189 120.323 76.0247 118.11 76.0247C115.896 76.0247 114.102 77.8189 114.102 80.0322C114.102 82.2455 115.896 84.0397 118.11 84.0397Z" fill="#4BD7C8"/>
<path d="M5.88297 102.075C8.09624 102.075 9.89046 100.28 9.89046 98.0671C9.89046 95.8538 8.09624 94.0596 5.88297 94.0596C3.6697 94.0596 1.87549 95.8538 1.87549 98.0671C1.87549 100.28 3.6697 102.075 5.88297 102.075Z" fill="#99E9DF"/>
<path d="M122.117 33.9399C124.33 33.9399 126.124 32.1457 126.124 29.9324C126.124 27.7191 124.33 25.9249 122.117 25.9249C119.904 25.9249 118.11 27.7191 118.11 29.9324C118.11 32.1457 119.904 33.9399 122.117 33.9399Z" fill="#99E9DF"/>
<path d="M80.0322 13.8987C82.2455 13.8987 84.0397 12.1045 84.0397 9.89121C84.0397 7.67794 82.2455 5.88373 80.0322 5.88373C77.8189 5.88373 76.0247 7.67794 76.0247 9.89121C76.0247 12.1045 77.8189 13.8987 80.0322 13.8987Z" fill="#4BD7C8"/>
<path d="M47.9673 122.117C50.1806 122.117 51.9748 120.323 51.9748 118.11C51.9748 115.896 50.1806 114.102 47.9673 114.102C45.754 114.102 43.9598 115.896 43.9598 118.11C43.9598 120.323 45.754 122.117 47.9673 122.117Z" fill="#4BD7C8"/>
<path d="M29.9324 9.89046C32.1457 9.89046 33.9399 8.09625 33.9399 5.88297C33.9399 3.6697 32.1457 1.87549 29.9324 1.87549C27.7191 1.87549 25.9249 3.6697 25.9249 5.88297C25.9249 8.09625 27.7191 9.89046 29.9324 9.89046Z" fill="#99E9DF"/>
<path d="M98.0672 126.124C100.28 126.124 102.075 124.33 102.075 122.117C102.075 119.904 100.28 118.11 98.0672 118.11C95.8539 118.11 94.0597 119.904 94.0597 122.117C94.0597 124.33 95.8539 126.124 98.0672 126.124Z" fill="#99E9DF"/>
<path d="M63.9997 81.0615C64.5712 81.0615 65.1152 81.3052 65.495 81.7307C66.8042 83.1984 68.7242 84.0399 70.7635 84.0399C74.2704 84.0399 77.2159 81.5847 77.4684 78.4515C77.5212 77.7987 77.8912 77.2127 78.4567 76.882C80.6642 75.5932 82.0362 73.3445 82.0362 71.0137C82.0362 69.3318 81.3354 67.6975 80.0614 66.4118C79.2884 65.631 79.2884 64.3725 80.0614 63.5915C81.3354 62.3058 82.0362 60.6715 82.0362 58.9895C82.0362 55.9631 79.8267 53.2956 76.5387 52.3513C75.5152 52.0578 74.9007 51.0126 75.1394 49.9746C75.2294 49.5831 75.2724 49.2641 75.2724 48.9696C75.2724 46.2071 72.7439 43.9596 69.6362 43.9596C68.0295 43.9596 66.4912 44.5771 65.4207 45.6533C64.6652 46.4088 63.3345 46.4088 62.579 45.6533C61.5085 44.5768 59.9703 43.9596 58.3635 43.9596C55.2558 43.9596 52.7273 46.2073 52.7273 48.9696C52.7273 49.3003 52.7645 49.6331 52.835 49.9568C53.062 50.9901 52.4495 52.0216 51.4318 52.3141C48.1615 53.2563 45.9638 55.9386 45.9638 58.9895C45.9638 60.4485 46.4883 61.8555 47.4806 63.0603C48.0695 63.7775 48.091 64.805 47.5296 65.5448C46.5061 66.897 45.9638 68.4423 45.9638 70.0117C45.9638 72.5127 47.3181 74.9092 49.5883 76.423C50.1403 76.791 50.4748 77.4092 50.4808 78.0737C50.5083 81.3635 53.5398 84.0397 57.2365 84.0397C59.2758 84.0397 61.1957 83.1982 62.505 81.7305C62.8842 81.305 63.4282 81.0615 63.9997 81.0615Z" fill="#CCF4EF"/>
<path d="M95.4544 116.851L83.1187 104.515C82.3372 103.734 81.9069 102.695 81.9069 101.59V95.9351H86.0439C86.8802 95.9351 87.7117 95.8301 88.5154 95.6234C89.5181 95.3654 90.1219 94.3431 89.8639 93.3401C89.6059 92.3374 88.5842 91.7337 87.5807 91.9916C87.0822 92.1199 86.5652 92.1849 86.0439 92.1849H41.9556C38.5693 92.1849 35.8146 89.4299 35.8146 86.0439V41.9556C35.8146 41.4343 35.8796 40.9173 36.0079 40.4191C36.2661 39.4164 35.6624 38.3941 34.6596 38.1359C33.6566 37.8776 32.6344 38.4814 32.3764 39.4841C32.1694 40.2876 32.0646 41.1191 32.0646 41.9556V46.0926H15.4659C14.6812 43.7656 12.4795 42.0846 9.89096 42.0846C6.64697 42.0846 4.00798 44.7236 4.00798 47.9676C4.00798 51.2116 6.64722 53.8505 9.89096 53.8505C12.4795 53.8505 14.6809 52.1696 15.4659 49.8426H32.0644V54.1088H23.9192C22.8837 54.1088 22.0442 54.9483 22.0442 55.9838C22.0442 57.0193 22.8837 57.8588 23.9192 57.8588H32.0644V62.1248H1.87499C0.839497 62.1248 0 62.9643 0 63.9998C0 65.0353 0.839497 65.8748 1.87499 65.8748H32.0644V70.1407H23.9192C22.8837 70.1407 22.0442 70.9802 22.0442 72.0157C22.0442 73.0512 22.8837 73.8907 23.9192 73.8907H32.0644V78.157H26.4094C24.3027 78.157 22.3219 78.9772 20.8324 80.4669L8.50097 92.7984C7.69747 92.3982 6.80672 92.1852 5.88273 92.1852C4.31123 92.1852 2.83399 92.7972 1.72274 93.9081C0.611998 95.0194 0 96.4969 0 98.0681C0 99.6394 0.611998 101.117 1.72324 102.228C2.83424 103.339 4.31173 103.951 5.88323 103.951C7.45472 103.951 8.93196 103.339 10.0432 102.228C11.1545 101.117 11.7665 99.6396 11.7665 98.0681C11.7665 97.1441 11.5535 96.2534 11.1532 95.4499L23.4847 83.1184C24.2659 82.3372 25.3049 81.9067 26.4101 81.9067H32.0651V86.0437C32.0651 91.4977 36.5024 95.9346 41.9561 95.9346H46.0931V112.533C43.7661 113.318 42.0851 115.52 42.0851 118.108C42.0851 121.352 44.7243 123.991 47.9681 123.991C51.2118 123.991 53.851 121.352 53.851 118.108C53.851 115.52 52.17 113.318 49.8431 112.533V95.9346H54.109V104.08C54.109 105.115 54.9485 105.955 55.984 105.955C57.0195 105.955 57.859 105.115 57.859 104.08V95.9346H62.1248V126.125C62.1248 127.16 62.9643 128 63.9997 128C65.0352 128 65.8747 127.16 65.8747 126.125V95.9351H70.1407V104.08C70.1407 105.116 70.9802 105.955 72.0157 105.955C73.0512 105.955 73.8907 105.116 73.8907 104.08V95.9351H78.1567V101.59C78.1567 103.697 78.9772 105.677 80.4669 107.167L92.8026 119.503C91.7129 121.703 92.0781 124.446 93.9081 126.276C95.0549 127.423 96.5616 127.997 98.0681 127.997C99.5746 127.997 101.081 127.423 102.228 126.276C104.522 123.983 104.522 120.25 102.228 117.957C100.398 116.127 97.6546 115.761 95.4544 116.851ZM9.89096 50.1006C8.71472 50.1006 7.75797 49.1436 7.75797 47.9676C7.75797 46.7913 8.71497 45.8346 9.89096 45.8346C11.067 45.8346 12.024 46.7916 12.024 47.9676C12.0242 49.1438 11.0672 50.1006 9.89096 50.1006ZM7.39122 99.5764C6.98822 99.9794 6.45272 100.201 5.88298 100.201C5.31323 100.201 4.77773 99.9794 4.37473 99.5764C3.97173 99.1734 3.74999 98.6379 3.74999 98.0681C3.74999 97.4984 3.97173 96.9629 4.37473 96.5599C4.77773 96.1569 5.31323 95.9351 5.88298 95.9351C6.45272 95.9351 6.98822 96.1569 7.39122 96.5599C7.79422 96.9629 8.01597 97.4984 8.01597 98.0681C8.01597 98.6379 7.79422 99.1736 7.39122 99.5764ZM47.9676 120.242C46.7913 120.242 45.8346 119.285 45.8346 118.109C45.8346 116.933 46.7916 115.976 47.9676 115.976C49.1436 115.976 50.1006 116.933 50.1006 118.109C50.1006 119.285 49.1438 120.242 47.9676 120.242ZM99.5766 123.625C98.7449 124.457 97.3916 124.456 96.5599 123.625C95.7281 122.793 95.7281 121.44 96.5599 120.608C96.9759 120.193 97.5221 119.985 98.0684 119.985C98.6146 119.985 99.1609 120.193 99.5766 120.608C100.408 121.44 100.408 122.793 99.5766 123.625Z" fill="black"/>
<path d="M48.5978 78.0235C48.5978 78.025 48.5978 78.0265 48.5978 78.028C48.5978 82.3769 52.4731 85.9152 57.2366 85.9152C59.9741 85.9152 62.4163 84.7454 64 82.9259C65.5838 84.7454 68.026 85.9152 70.7635 85.9152C75.3477 85.9152 79.1075 82.6377 79.384 78.5147C82.1682 76.8992 83.911 74.0695 83.911 71.014C83.911 68.7665 82.9527 66.6225 81.3035 65.002C82.9525 63.3815 83.911 61.2373 83.911 58.99C83.911 54.98 80.978 51.5833 76.9627 50.4796C77.0815 49.9893 77.1475 49.4851 77.1475 48.9698C77.1475 45.1733 73.7777 42.0846 69.6363 42.0846C67.3928 42.0846 65.3775 42.9918 64 44.4258C62.6225 42.9918 60.607 42.0846 58.3638 42.0846C54.2221 42.0846 50.8526 45.1733 50.8526 48.9698C50.8526 49.4851 50.9186 49.9893 51.0373 50.4796C47.0221 51.5831 44.0891 54.9798 44.0891 58.99C44.0891 60.9498 44.7826 62.7988 46.0639 64.3258C44.8111 65.9475 44.0891 67.9162 44.0891 70.0122C44.0886 73.2002 45.7921 76.177 48.5978 78.0235ZM53.8078 53.8515C53.8246 53.852 53.8413 53.8543 53.8578 53.8543C54.2858 53.8543 54.7161 53.7086 55.0683 53.4103C55.7871 52.8018 55.9313 51.7693 55.4488 50.9926C55.4346 50.9696 55.4216 50.9461 55.4066 50.9238C55.3988 50.9126 55.3896 50.9018 55.3816 50.8906C55.3526 50.8498 55.3228 50.8098 55.2906 50.7713C55.2896 50.7701 55.2888 50.7688 55.2878 50.7678C54.9751 50.3981 54.6018 49.7861 54.6018 48.9696C54.6018 47.2408 56.2893 45.8343 58.3631 45.8343C60.4368 45.8343 62.1243 47.2408 62.1243 48.9696C62.1243 50.0051 62.9638 50.8446 63.9993 50.8446C65.0348 50.8446 65.8743 50.0051 65.8743 48.9696C65.8743 47.2408 67.5618 45.8343 69.6355 45.8343C71.7093 45.8343 73.3968 47.2408 73.3968 48.9696C73.3968 49.4316 73.2758 49.8256 73.1155 50.1496C72.049 50.2503 71.0175 50.5081 70.0383 50.9211C69.084 51.3233 68.6368 52.4231 69.039 53.3773C69.4413 54.3313 70.541 54.779 71.4953 54.3765C72.3058 54.0348 73.1778 53.859 74.0872 53.852C74.1052 53.8525 74.123 53.8543 74.141 53.8543C74.1577 53.8543 74.1743 53.852 74.191 53.8515C77.4867 53.873 80.1602 56.1693 80.1602 58.9895C80.1602 60.7623 79.0817 62.3898 77.275 63.3435C76.66 63.668 76.275 64.3063 76.275 65.0018C76.275 65.6973 76.66 66.3355 77.275 66.66C79.0817 67.6135 80.1602 69.2412 80.1602 71.014C80.1602 72.3357 79.546 73.5965 78.5085 74.5392C77.5227 72.714 75.7805 71.261 73.5792 70.5695C72.5918 70.2592 71.539 70.8085 71.2285 71.7962C70.918 72.7842 71.4675 73.8367 72.4553 74.147C74.3667 74.7477 75.6512 76.3075 75.6512 78.0282C75.6512 80.3094 73.4582 82.1654 70.7625 82.1654C68.067 82.1654 65.874 80.3094 65.874 78.0282V66.004C65.874 63.7228 68.067 61.867 70.7625 61.867C71.798 61.867 72.6375 61.0275 72.6375 59.992C72.6375 58.9565 71.798 58.117 70.7625 58.117C68.949 58.117 67.265 58.631 65.874 59.5063V57.1113C65.874 56.0758 65.0345 55.2363 63.999 55.2363C62.9635 55.2363 62.124 56.0758 62.124 57.1113V67.5205C61.493 67.1245 60.801 66.7967 60.0526 66.5615C59.0641 66.251 58.0121 66.8005 57.7018 67.788C57.3913 68.776 57.9406 69.8285 58.9283 70.139C60.8398 70.7397 62.124 72.2995 62.124 74.02V78.028C62.124 80.3092 59.9311 82.1652 57.2356 82.1652C54.5398 82.1652 52.3468 80.3092 52.3468 78.028C52.3468 77.0502 52.7613 76.0997 53.5138 75.3517C54.2483 74.6217 54.2518 73.4345 53.5218 72.7C52.7918 71.9655 51.6048 71.962 50.8703 72.692C50.4211 73.1387 50.0343 73.6267 49.7128 74.1455C48.5288 73.0255 47.8376 71.552 47.8376 70.0117C47.8376 67.2337 50.0178 64.7933 53.1396 64.077C54.1488 63.8455 54.7793 62.8395 54.5478 61.8303C54.3163 60.8208 53.3101 60.1905 52.3011 60.422C51.0443 60.7103 49.8873 61.1915 48.8613 61.8233C48.1961 60.9878 47.8378 60.0093 47.8378 58.9895C47.8386 56.1693 50.5121 53.8733 53.8078 53.8515Z" fill="black"/>
<path d="M126.124 62.1248H95.9351V57.8588H104.08C105.116 57.8588 105.955 57.0193 105.955 55.9838C105.955 54.9483 105.116 54.1088 104.08 54.1088H95.9351V49.8426H101.59C103.697 49.8426 105.678 49.0223 107.167 47.5326L119.499 35.2011C120.302 35.6014 121.193 35.8144 122.117 35.8144C123.688 35.8144 125.165 35.2024 126.277 34.0914C127.388 32.9801 128 31.5029 128 29.9314C128 28.3599 127.388 26.8826 126.277 25.7714C125.166 24.6602 123.688 24.0482 122.117 24.0482C120.545 24.0482 119.068 24.6602 117.957 25.7712C116.846 26.8824 116.234 28.3596 116.234 29.9311C116.234 30.8551 116.447 31.7459 116.847 32.5494L104.515 44.8808C103.734 45.6621 102.695 46.0926 101.59 46.0926H95.9349V41.9556C95.9349 36.5016 91.4976 32.0646 86.0439 32.0646H81.9069V15.4659C84.2339 14.6812 85.9149 12.4795 85.9149 9.89096C85.9149 6.64697 83.2757 4.00798 80.0319 4.00798C76.7882 4.00798 74.1489 6.64722 74.1489 9.89096C74.1489 12.4795 75.8299 14.6809 78.1569 15.4659V32.0644H73.8909V23.9192C73.8909 22.8837 73.0515 22.0442 72.016 22.0442C70.9805 22.0442 70.141 22.8837 70.141 23.9192V32.0644H65.8747V1.87499C65.8747 0.839497 65.0352 0 63.9997 0C62.9642 0 62.1247 0.839497 62.1247 1.87499V32.0644H57.8588V23.9192C57.8588 22.8837 57.0193 22.0442 55.9838 22.0442C54.9483 22.0442 54.1088 22.8837 54.1088 23.9192V32.0644H49.8428V26.4096C49.8428 24.3029 49.0223 22.3222 47.5326 20.8327L35.1968 8.49697C36.2866 6.29673 35.9213 3.55324 34.0916 1.72324C31.7976 -0.570498 28.0654 -0.570248 25.7716 1.72324C23.4779 4.01698 23.4779 7.74922 25.7716 10.0432C26.9186 11.19 28.4251 11.7635 29.9316 11.7635C30.8286 11.7635 31.7241 11.5552 32.5454 11.1485L44.8811 23.4844C45.6626 24.2657 46.0928 25.3047 46.0928 26.4096V32.0644H41.9558C41.1196 32.0644 40.2878 32.1694 39.4838 32.3761C38.4811 32.6341 37.8773 33.6564 38.1353 34.6594C38.3933 35.6624 39.4158 36.2661 40.4186 36.0079C40.9173 35.8796 41.4343 35.8144 41.9556 35.8144H86.0439C89.4301 35.8144 92.1849 38.5693 92.1849 41.9553V86.0439C92.1849 86.5647 92.1199 87.0814 91.9919 87.5797C91.7341 88.5827 92.3381 89.6046 93.3409 89.8624C93.4974 89.9026 93.6544 89.9219 93.8091 89.9219C94.6444 89.9219 95.4061 89.3596 95.6236 88.5132C95.8301 87.7102 95.9349 86.8792 95.9349 86.0437V81.9067H112.533C113.318 84.2337 115.52 85.9147 118.108 85.9147C121.352 85.9147 123.991 83.2757 123.991 80.0317C123.991 76.7877 121.352 74.1487 118.108 74.1487C115.52 74.1487 113.318 75.8297 112.533 78.1567H95.9349V73.8905H104.08C105.116 73.8905 105.955 73.051 105.955 72.0155C105.955 70.98 105.116 70.1405 104.08 70.1405H95.9349V65.8747H126.124C127.16 65.8747 127.999 65.0352 127.999 63.9998C127.999 62.9643 127.16 62.1248 126.124 62.1248ZM120.608 28.4231C121.011 28.0201 121.547 27.7984 122.117 27.7984C122.686 27.7984 123.222 28.0201 123.625 28.4231C124.028 28.8261 124.249 29.3616 124.249 29.9314C124.249 30.5011 124.028 31.0366 123.625 31.4396C123.222 31.8426 122.686 32.0644 122.117 32.0644C121.547 32.0644 121.011 31.8426 120.608 31.4396C120.205 31.0366 119.984 30.5011 119.984 29.9314C119.984 29.3616 120.205 28.8259 120.608 28.4231ZM80.0319 7.75797C81.2082 7.75797 82.1649 8.71497 82.1649 9.89096C82.1649 11.067 81.2079 12.024 80.0319 12.024C78.8559 12.024 77.8989 11.067 77.8989 9.89096C77.8989 8.71497 78.8557 7.75797 80.0319 7.75797ZM28.4229 7.39147C27.5911 6.55972 27.5911 5.20648 28.4229 4.37498C28.8389 3.95898 29.3849 3.75124 29.9314 3.75124C30.4776 3.75124 31.0239 3.95923 31.4396 4.37498C32.2714 5.20673 32.2714 6.55997 31.4396 7.39172C30.6081 8.22297 29.2549 8.22322 28.4229 7.39147ZM118.109 77.8989C119.285 77.8989 120.242 78.8559 120.242 80.0319C120.242 81.2082 119.285 82.1649 118.109 82.1649C116.933 82.1649 115.976 81.2079 115.976 80.0319C115.975 78.8557 116.932 77.8989 118.109 77.8989Z" fill="black"/>
<path d="M162.8 97.375C161.85 97.375 161.05 97.05 160.4 96.4C159.75 95.75 159.425 94.95 159.425 94V51.025H144.125C143.225 51.025 142.475 50.725 141.875 50.125C141.275 49.525 140.975 48.775 140.975 47.875C140.975 46.975 141.275 46.225 141.875 45.625C142.475 44.975 143.225 44.65 144.125 44.65H181.475C182.375 44.65 183.125 44.975 183.725 45.625C184.375 46.225 184.7 46.975 184.7 47.875C184.7 48.775 184.375 49.525 183.725 50.125C183.125 50.725 182.375 51.025 181.475 51.025H166.25V94C166.25 94.95 165.9 95.75 165.2 96.4C164.55 97.05 163.75 97.375 162.8 97.375ZM200.21 97.75C197.46 97.75 195.06 97.1 193.01 95.8C191.01 94.5 189.46 92.725 188.36 90.475C187.31 88.225 186.785 85.75 186.785 83.05V61.75C186.785 60.8 187.11 60 187.76 59.35C188.46 58.7 189.285 58.375 190.235 58.375C191.185 58.375 191.985 58.7 192.635 59.35C193.285 60 193.61 60.8 193.61 61.75V82.3C193.61 88.4 196.36 91.45 201.86 91.45C204.36 91.45 206.585 90.8 208.535 89.5C210.535 88.2 212.41 86.45 214.16 84.25V61.75C214.16 60.8 214.485 60 215.135 59.35C215.835 58.7 216.66 58.375 217.61 58.375C218.56 58.375 219.36 58.7 220.01 59.35C220.66 60 220.985 60.8 220.985 61.75V93.925C220.985 94.875 220.66 95.7 220.01 96.4C219.36 97.05 218.56 97.375 217.61 97.375C216.66 97.375 215.835 97.05 215.135 96.4C214.485 95.7 214.16 94.875 214.16 93.925V90.85C212.26 92.95 210.21 94.625 208.01 95.875C205.81 97.125 203.21 97.75 200.21 97.75ZM246.063 97.75C238.763 97.75 235.113 94.45 235.113 87.85V64.6H229.788C229.388 64.6 229.038 64.475 228.738 64.225C228.488 63.925 228.363 63.575 228.363 63.175C228.363 62.675 228.588 62.25 229.038 61.9L239.238 51.925C239.688 51.475 240.113 51.25 240.513 51.25C240.913 51.25 241.238 51.4 241.488 51.7C241.788 52 241.938 52.35 241.938 52.75V58.75H250.413C251.263 58.75 251.963 59.025 252.513 59.575C253.063 60.125 253.338 60.825 253.338 61.675C253.338 62.475 253.063 63.175 252.513 63.775C251.963 64.325 251.263 64.6 250.413 64.6H241.938V87.25C241.938 89.2 242.388 90.45 243.288 91C244.238 91.5 245.413 91.75 246.813 91.75C247.813 91.75 248.813 91.6 249.813 91.3C250.013 91.25 250.213 91.2 250.413 91.15C250.663 91.1 250.963 91.075 251.313 91.075C252.013 91.075 252.638 91.35 253.188 91.9C253.738 92.4 254.013 93.025 254.013 93.775C254.013 94.925 253.438 95.8 252.288 96.4C250.338 97.3 248.263 97.75 246.063 97.75ZM277.863 97.75C274.013 97.75 270.638 96.925 267.738 95.275C264.838 93.625 262.588 91.3 260.988 88.3C259.438 85.25 258.663 81.775 258.663 77.875C258.663 73.975 259.438 70.525 260.988 67.525C262.588 64.475 264.838 62.125 267.738 60.475C270.638 58.825 274.013 58 277.863 58C281.663 58 285.013 58.825 287.913 60.475C290.813 62.125 293.063 64.475 294.663 67.525C296.263 70.525 297.063 73.975 297.063 77.875C297.063 81.775 296.263 85.25 294.663 88.3C293.063 91.3 290.813 93.625 287.913 95.275C285.013 96.925 281.663 97.75 277.863 97.75ZM277.863 91.525C279.913 91.525 281.863 91.05 283.713 90.1C285.613 89.15 287.163 87.65 288.363 85.6C289.613 83.55 290.238 80.95 290.238 77.8C290.238 74.7 289.613 72.125 288.363 70.075C287.163 68.025 285.613 66.55 283.713 65.65C281.863 64.7 279.913 64.225 277.863 64.225C275.763 64.225 273.763 64.7 271.863 65.65C270.013 66.55 268.488 68.025 267.288 70.075C266.088 72.125 265.488 74.7 265.488 77.8C265.488 80.95 266.088 83.55 267.288 85.6C268.488 87.65 270.013 89.15 271.863 90.1C273.763 91.05 275.763 91.525 277.863 91.525ZM309.993 97.375C309.043 97.375 308.243 97.05 307.593 96.4C306.943 95.75 306.618 94.95 306.618 94V61.825C306.618 60.875 306.943 60.075 307.593 59.425C308.243 58.725 309.043 58.375 309.993 58.375C310.943 58.375 311.743 58.725 312.393 59.425C313.093 60.075 313.443 60.875 313.443 61.825V65.05C316.943 60.35 320.868 58 325.218 58H325.593C326.543 58 327.318 58.325 327.918 58.975C328.568 59.625 328.893 60.425 328.893 61.375C328.893 62.325 328.568 63.1 327.918 63.7C327.268 64.3 326.443 64.6 325.443 64.6H325.068C322.668 64.6 320.468 65.2 318.468 66.4C316.468 67.55 314.793 69.15 313.443 71.2V94C313.443 94.95 313.093 95.75 312.393 96.4C311.743 97.05 310.943 97.375 309.993 97.375ZM340.054 97.375C339.104 97.375 338.304 97.05 337.654 96.4C337.004 95.75 336.679 94.95 336.679 94V47.725C336.679 46.775 337.004 45.975 337.654 45.325C338.304 44.625 339.104 44.275 340.054 44.275C341.004 44.275 341.804 44.625 342.454 45.325C343.154 45.975 343.504 46.775 343.504 47.725V94C343.504 94.95 343.154 95.75 342.454 96.4C341.804 97.05 341.004 97.375 340.054 97.375ZM359.359 97.375C358.409 97.375 357.609 97.05 356.959 96.4C356.309 95.75 355.984 94.95 355.984 94V61.825C355.984 60.875 356.309 60.075 356.959 59.425C357.609 58.725 358.409 58.375 359.359 58.375C360.309 58.375 361.109 58.725 361.759 59.425C362.459 60.075 362.809 60.875 362.809 61.825V64.9C364.709 62.8 366.759 61.125 368.959 59.875C371.159 58.625 373.759 58 376.759 58C379.509 58 381.884 58.65 383.884 59.95C385.934 61.25 387.484 63.025 388.534 65.275C389.634 67.525 390.184 70 390.184 72.7V94C390.184 94.95 389.834 95.75 389.134 96.4C388.484 97.05 387.684 97.375 386.734 97.375C385.784 97.375 384.984 97.05 384.334 96.4C383.684 95.75 383.359 94.95 383.359 94V73.45C383.359 67.35 380.609 64.3 375.109 64.3C372.609 64.3 370.359 64.95 368.359 66.25C366.409 67.55 364.559 69.3 362.809 71.5V94C362.809 94.95 362.459 95.75 361.759 96.4C361.109 97.05 360.309 97.375 359.359 97.375Z" fill="#4BD7C8"/>
<path d="M160.4 96.4L158.279 98.5213L160.4 96.4ZM159.425 51.025H162.425V48.025H159.425V51.025ZM141.875 50.125L139.754 52.2463L139.754 52.2463L141.875 50.125ZM141.875 45.625L143.996 47.7463L144.039 47.7039L144.079 47.6598L141.875 45.625ZM183.725 45.625L181.521 47.6598L181.602 47.748L181.69 47.8294L183.725 45.625ZM183.725 50.125L181.69 47.9206L181.646 47.9613L181.604 48.0037L183.725 50.125ZM166.25 51.025V48.025H163.25V51.025H166.25ZM165.2 96.4L163.159 94.2016L163.118 94.2394L163.079 94.2787L165.2 96.4ZM162.8 94.375C162.673 94.375 162.624 94.3547 162.617 94.3519C162.612 94.3498 162.581 94.3388 162.521 94.2787L158.279 98.5213C159.512 99.7546 161.084 100.375 162.8 100.375V94.375ZM162.521 94.2787C162.461 94.2186 162.45 94.1884 162.448 94.1834C162.445 94.1763 162.425 94.1268 162.425 94H156.425C156.425 95.7159 157.045 97.288 158.279 98.5213L162.521 94.2787ZM162.425 94V51.025H156.425V94H162.425ZM159.425 48.025H144.125V54.025H159.425V48.025ZM144.125 48.025C144.067 48.025 144.032 48.0202 144.015 48.0171C143.999 48.0142 143.996 48.0122 144.002 48.0146C144.008 48.017 144.014 48.0204 144.017 48.0226C144.02 48.0246 144.013 48.0204 143.996 48.0037L139.754 52.2463C140.953 53.4457 142.483 54.025 144.125 54.025V48.025ZM143.996 48.0037C143.98 47.987 143.975 47.9798 143.977 47.9828C143.98 47.9861 143.983 47.9922 143.985 47.9983C143.988 48.0042 143.986 48.0014 143.983 47.9852C143.98 47.9684 143.975 47.9331 143.975 47.875H137.975C137.975 49.5171 138.554 51.0469 139.754 52.2463L143.996 48.0037ZM143.975 47.875C143.975 47.8169 143.98 47.7816 143.983 47.7648C143.986 47.7486 143.988 47.7458 143.985 47.7517C143.983 47.7578 143.98 47.7639 143.977 47.7672C143.975 47.7702 143.98 47.763 143.996 47.7463L139.754 43.5037C138.554 44.7031 137.975 46.2329 137.975 47.875H143.975ZM144.079 47.6598C144.102 47.6352 144.113 47.6282 144.11 47.6305C144.108 47.6314 144.105 47.6338 144.099 47.637C144.094 47.6402 144.087 47.6434 144.08 47.6464C144.065 47.6529 144.056 47.6547 144.058 47.6544C144.06 47.6539 144.081 47.65 144.125 47.65V41.65C142.404 41.65 140.85 42.3128 139.671 43.5902L144.079 47.6598ZM144.125 47.65H181.475V41.65H144.125V47.65ZM181.475 47.65C181.519 47.65 181.54 47.6539 181.542 47.6544C181.544 47.6547 181.535 47.6529 181.52 47.6464C181.513 47.6434 181.506 47.6402 181.501 47.637C181.495 47.6338 181.492 47.6314 181.49 47.6305C181.487 47.6282 181.498 47.6352 181.521 47.6598L185.929 43.5902C184.75 42.3128 183.196 41.65 181.475 41.65V47.65ZM181.69 47.8294C181.715 47.8521 181.722 47.8628 181.72 47.8596C181.719 47.8583 181.716 47.8548 181.713 47.8492C181.71 47.8437 181.707 47.8372 181.704 47.8303C181.697 47.8153 181.695 47.8062 181.696 47.8079C181.696 47.8103 181.7 47.8311 181.7 47.875H187.7C187.7 46.1543 187.037 44.5997 185.76 43.4206L181.69 47.8294ZM181.7 47.875C181.7 47.9189 181.696 47.9397 181.696 47.9421C181.695 47.9438 181.697 47.9347 181.704 47.9197C181.707 47.9128 181.71 47.9063 181.713 47.9008C181.716 47.8952 181.719 47.8917 181.72 47.8904C181.722 47.8872 181.715 47.8979 181.69 47.9206L185.76 52.3294C187.037 51.1503 187.7 49.5957 187.7 47.875H181.7ZM181.604 48.0037C181.587 48.0204 181.58 48.0246 181.583 48.0226C181.586 48.0204 181.592 48.017 181.598 48.0146C181.604 48.0122 181.601 48.0142 181.585 48.0171C181.568 48.0202 181.533 48.025 181.475 48.025V54.025C183.117 54.025 184.647 53.4457 185.846 52.2463L181.604 48.0037ZM181.475 48.025H166.25V54.025H181.475V48.025ZM163.25 51.025V94H169.25V51.025H163.25ZM163.25 94C163.25 94.0526 163.245 94.083 163.243 94.096C163.241 94.1028 163.24 94.1067 163.24 94.1082C163.239 94.109 163.239 94.1095 163.239 94.1097C163.239 94.1099 163.239 94.11 163.239 94.11C163.239 94.1101 163.239 94.1102 163.239 94.1105C163.239 94.1108 163.238 94.1115 163.238 94.1125C163.237 94.1143 163.234 94.1184 163.23 94.1248C163.221 94.1373 163.2 94.1635 163.159 94.2016L167.241 98.5984C168.549 97.3843 169.25 95.7894 169.25 94H163.25ZM163.079 94.2787C163.019 94.3388 162.988 94.3498 162.983 94.3519C162.976 94.3547 162.927 94.375 162.8 94.375V100.375C164.516 100.375 166.088 99.7546 167.321 98.5213L163.079 94.2787ZM193.01 95.8L191.375 98.3153L191.39 98.3245L191.404 98.3335L193.01 95.8ZM188.36 90.475L185.642 91.7437L185.653 91.7682L185.665 91.7926L188.36 90.475ZM187.76 59.35L185.719 57.1516L185.678 57.1894L185.639 57.2287L187.76 59.35ZM208.535 89.5L206.9 86.9847L206.886 86.9942L206.871 87.0038L208.535 89.5ZM214.16 84.25L216.508 86.1176L217.16 85.2977V84.25H214.16ZM215.135 59.35L213.094 57.1516L213.053 57.1894L213.014 57.2287L215.135 59.35ZM220.01 96.4L222.132 98.5213L222.171 98.4821L222.209 98.4414L220.01 96.4ZM215.135 96.4L212.937 98.4414L213.013 98.5228L213.094 98.5984L215.135 96.4ZM214.16 90.85H217.16V83.0627L211.936 88.8373L214.16 90.85ZM208.01 95.875L209.492 98.4834L208.01 95.875ZM200.21 94.75C197.952 94.75 196.125 94.2227 194.617 93.2665L191.404 98.3335C193.996 99.9773 196.969 100.75 200.21 100.75V94.75ZM194.645 93.2847C193.124 92.2957 191.929 90.945 191.056 89.1574L185.665 91.7926C186.991 94.505 188.897 96.7043 191.375 98.3153L194.645 93.2847ZM191.079 89.2063C190.23 87.3874 189.785 85.3505 189.785 83.05H183.785C183.785 86.1495 184.391 89.0626 185.642 91.7437L191.079 89.2063ZM189.785 83.05V61.75H183.785V83.05H189.785ZM189.785 61.75C189.785 61.6232 189.806 61.5737 189.809 61.5666C189.811 61.5616 189.822 61.5314 189.882 61.4713L185.639 57.2287C184.406 58.462 183.785 60.0341 183.785 61.75H189.785ZM189.802 61.5484C189.95 61.4105 190.047 61.375 190.235 61.375V55.375C188.523 55.375 186.97 55.9895 185.719 57.1516L189.802 61.5484ZM190.235 61.375C190.362 61.375 190.412 61.3953 190.419 61.3981C190.424 61.4002 190.454 61.4112 190.514 61.4713L194.757 57.2287C193.523 55.9954 191.951 55.375 190.235 55.375V61.375ZM190.514 61.4713C190.574 61.5314 190.585 61.5616 190.587 61.5666C190.59 61.5737 190.61 61.6232 190.61 61.75H196.61C196.61 60.0341 195.99 58.462 194.757 57.2287L190.514 61.4713ZM190.61 61.75V82.3H196.61V61.75H190.61ZM190.61 82.3C190.61 85.7401 191.379 88.8804 193.445 91.1714C195.564 93.5215 198.563 94.45 201.86 94.45V88.45C199.658 88.45 198.532 87.8535 197.901 87.1536C197.217 86.3946 196.61 84.9599 196.61 82.3H190.61ZM201.86 94.45C204.911 94.45 207.723 93.647 210.199 91.9962L206.871 87.0038C205.448 87.953 203.81 88.45 201.86 88.45V94.45ZM210.17 92.0153C212.485 90.511 214.592 88.5265 216.508 86.1176L211.813 82.3824C210.229 84.3735 208.586 85.889 206.9 86.9847L210.17 92.0153ZM217.16 84.25V61.75H211.16V84.25H217.16ZM217.16 61.75C217.16 61.6232 217.181 61.5737 217.184 61.5666C217.186 61.5616 217.197 61.5314 217.257 61.4713L213.014 57.2287C211.781 58.462 211.16 60.0341 211.16 61.75H217.16ZM217.177 61.5484C217.325 61.4105 217.422 61.375 217.61 61.375V55.375C215.898 55.375 214.345 55.9895 213.094 57.1516L217.177 61.5484ZM217.61 61.375C217.737 61.375 217.787 61.3953 217.794 61.3981C217.799 61.4002 217.829 61.4112 217.889 61.4713L222.132 57.2287C220.898 55.9954 219.326 55.375 217.61 55.375V61.375ZM217.889 61.4713C217.949 61.5314 217.96 61.5616 217.962 61.5666C217.965 61.5737 217.985 61.6232 217.985 61.75H223.985C223.985 60.0341 223.365 58.462 222.132 57.2287L217.889 61.4713ZM217.985 61.75V93.925H223.985V61.75H217.985ZM217.985 93.925C217.985 94.1131 217.95 94.2101 217.812 94.3586L222.209 98.4414C223.371 97.1899 223.985 95.6369 223.985 93.925H217.985ZM217.889 94.2787C217.829 94.3388 217.799 94.3498 217.794 94.3519C217.787 94.3547 217.737 94.375 217.61 94.375V100.375C219.326 100.375 220.898 99.7546 222.132 98.5213L217.889 94.2787ZM217.61 94.375C217.422 94.375 217.325 94.3395 217.177 94.2016L213.094 98.5984C214.345 99.7605 215.898 100.375 217.61 100.375V94.375ZM217.334 94.3586C217.196 94.2101 217.16 94.1131 217.16 93.925H211.16C211.16 95.6369 211.775 97.1899 212.937 98.4414L217.334 94.3586ZM217.16 93.925V90.85H211.16V93.925H217.16ZM211.936 88.8373C210.225 90.7284 208.42 92.192 206.528 93.2666L209.492 98.4834C212.001 97.058 214.296 95.1716 216.385 92.8627L211.936 88.8373ZM206.528 93.2666C204.857 94.216 202.788 94.75 200.21 94.75V100.75C203.633 100.75 206.763 100.034 209.492 98.4834L206.528 93.2666ZM235.113 64.6H238.113V61.6H235.113V64.6ZM228.738 64.225L226.434 66.1456L226.608 66.3551L226.818 66.5297L228.738 64.225ZM229.038 61.9L230.88 64.2681L231.014 64.1637L231.136 64.0448L229.038 61.9ZM239.238 51.925L241.336 54.0698L241.348 54.0581L241.36 54.0463L239.238 51.925ZM241.488 51.7L239.184 53.6206L239.271 53.7251L239.367 53.8213L241.488 51.7ZM241.938 58.75H238.938V61.75H241.938V58.75ZM252.513 59.575L250.392 61.6963L250.392 61.6963L252.513 59.575ZM252.513 63.775L254.635 65.8963L254.681 65.8502L254.725 65.8022L252.513 63.775ZM241.938 64.6V61.6H238.938V64.6H241.938ZM243.288 91L241.724 93.5598L241.806 93.61L241.891 93.6548L243.288 91ZM249.813 91.3L249.086 88.3896L249.018 88.4065L248.951 88.4265L249.813 91.3ZM250.413 91.15L249.825 88.2083L249.755 88.2223L249.686 88.2396L250.413 91.15ZM253.188 91.9L251.067 94.0213L251.118 94.0718L251.17 94.1198L253.188 91.9ZM252.288 96.4L253.546 99.1239L253.612 99.0934L253.676 99.0598L252.288 96.4ZM246.063 94.75C242.805 94.75 240.922 94.0071 239.863 93.0497C238.861 92.1442 238.113 90.6052 238.113 87.85H232.113C232.113 91.6948 233.191 95.1058 235.839 97.5003C238.43 99.8429 242.022 100.75 246.063 100.75V94.75ZM238.113 87.85V64.6H232.113V87.85H238.113ZM235.113 61.6H229.788V67.6H235.113V61.6ZM229.788 61.6C229.906 61.6 230.062 61.6193 230.235 61.681C230.409 61.7431 230.552 61.8312 230.659 61.9203L226.818 66.5297C227.671 67.2407 228.705 67.6 229.788 67.6V61.6ZM231.043 62.3044C231.132 62.4114 231.22 62.5548 231.282 62.7285C231.344 62.9012 231.363 63.0574 231.363 63.175H225.363C225.363 64.2582 225.723 65.2923 226.434 66.1456L231.043 62.3044ZM231.363 63.175C231.363 63.3942 231.309 63.6475 231.184 63.8849C231.064 64.1106 230.929 64.2302 230.88 64.2681L227.197 59.5319C226.132 60.3599 225.363 61.6113 225.363 63.175H231.363ZM231.136 64.0448L241.336 54.0698L237.141 49.7802L226.941 59.7552L231.136 64.0448ZM241.36 54.0463C241.437 53.9688 241.42 54.0058 241.298 54.0701C241.165 54.1406 240.892 54.25 240.513 54.25V48.25C238.957 48.25 237.809 49.1118 237.117 49.8037L241.36 54.0463ZM240.513 54.25C240.331 54.25 240.076 54.2136 239.8 54.0864C239.522 53.9582 239.318 53.7812 239.184 53.6206L243.793 49.7794C242.957 48.7765 241.779 48.25 240.513 48.25V54.25ZM239.367 53.8213C239.278 53.7322 239.16 53.5829 239.069 53.3693C238.975 53.1521 238.938 52.9354 238.938 52.75H244.938C244.938 51.5023 244.435 50.4034 243.61 49.5787L239.367 53.8213ZM238.938 52.75V58.75H244.938V52.75H238.938ZM241.938 61.75H250.413V55.75H241.938V61.75ZM250.413 61.75C250.464 61.75 250.491 61.7541 250.499 61.7554C250.506 61.7567 250.498 61.7558 250.479 61.7485C250.46 61.7411 250.439 61.7305 250.42 61.7179C250.401 61.7054 250.392 61.6963 250.392 61.6963L254.635 57.4537C253.467 56.2861 251.978 55.75 250.413 55.75V61.75ZM250.392 61.6963C250.392 61.6964 250.383 61.687 250.371 61.6682C250.358 61.649 250.347 61.6284 250.34 61.6095C250.333 61.5909 250.332 61.5827 250.333 61.5897C250.334 61.5973 250.338 61.6244 250.338 61.675H256.338C256.338 60.1106 255.802 58.6213 254.635 57.4537L250.392 61.6963ZM250.338 61.675C250.338 61.7024 250.336 61.7148 250.336 61.7153C250.336 61.7154 250.337 61.7103 250.34 61.703C250.343 61.6958 250.344 61.694 250.341 61.6988C250.338 61.7039 250.327 61.7206 250.302 61.7478L254.725 65.8022C255.772 64.6596 256.338 63.2399 256.338 61.675H250.338ZM250.392 61.6537C250.392 61.6537 250.401 61.6446 250.42 61.6321C250.439 61.6195 250.46 61.6089 250.479 61.6015C250.498 61.5942 250.506 61.5933 250.499 61.5946C250.491 61.5959 250.464 61.6 250.413 61.6V67.6C251.978 67.6 253.467 67.0639 254.635 65.8963L250.392 61.6537ZM250.413 61.6H241.938V67.6H250.413V61.6ZM238.938 64.6V87.25H244.938V64.6H238.938ZM238.938 87.25C238.938 89.3774 239.383 92.1291 241.724 93.5598L244.853 88.4402C245.124 88.6056 245.154 88.7864 245.099 88.6338C245.032 88.4491 244.938 88.0256 244.938 87.25H238.938ZM241.891 93.6548C243.383 94.4399 245.07 94.75 246.813 94.75V88.75C245.757 88.75 245.094 88.5601 244.686 88.3452L241.891 93.6548ZM246.813 94.75C248.118 94.75 249.408 94.5537 250.676 94.1735L248.951 88.4265C248.219 88.6463 247.509 88.75 246.813 88.75V94.75ZM250.541 94.2104C250.741 94.1604 250.941 94.1104 251.141 94.0604L249.686 88.2396C249.486 88.2896 249.286 88.3396 249.086 88.3896L250.541 94.2104ZM251.002 94.0917C250.997 94.0927 251.019 94.088 251.075 94.0834C251.13 94.0788 251.209 94.075 251.313 94.075V88.075C250.833 88.075 250.325 88.1082 249.825 88.2083L251.002 94.0917ZM251.313 94.075C251.291 94.075 251.256 94.0726 251.215 94.064C251.173 94.0553 251.133 94.0423 251.099 94.0272C251.027 93.9955 251.019 93.9731 251.067 94.0213L255.31 89.7787C254.266 88.7346 252.901 88.075 251.313 88.075V94.075ZM251.17 94.1198C251.163 94.1126 251.107 94.0569 251.061 93.952C251.015 93.8477 251.013 93.7748 251.013 93.775H257.013C257.013 92.1885 256.388 90.7546 255.206 89.6802L251.17 94.1198ZM251.013 93.775C251.013 93.8108 251.009 93.8033 251.02 93.7665C251.025 93.7489 251.032 93.7282 251.042 93.7059C251.052 93.6836 251.064 93.6634 251.075 93.6462C251.099 93.61 251.112 93.6022 251.094 93.6183C251.073 93.6361 251.015 93.6805 250.901 93.7402L253.676 99.0598C254.598 98.5791 255.462 97.8967 256.089 96.9413C256.73 95.9667 257.013 94.8756 257.013 93.775H251.013ZM251.031 93.6761C249.485 94.3897 247.84 94.75 246.063 94.75V100.75C248.687 100.75 251.192 100.21 253.546 99.1239L251.031 93.6761ZM267.738 95.275L269.222 92.6675L269.222 92.6675L267.738 95.275ZM260.988 88.3L258.314 89.6591L258.327 89.6856L258.341 89.7118L260.988 88.3ZM260.988 67.525L258.332 66.1314L258.327 66.1396L258.323 66.1479L260.988 67.525ZM267.738 60.475L269.222 63.0825L269.222 63.0825L267.738 60.475ZM287.913 60.475L286.43 63.0825L286.43 63.0825L287.913 60.475ZM294.663 67.525L292.007 68.9186L292.012 68.9277L292.016 68.9368L294.663 67.525ZM294.663 88.3L297.311 89.7118L297.315 89.7027L297.32 89.6936L294.663 88.3ZM287.913 95.275L286.43 92.6675L286.43 92.6675L287.913 95.275ZM283.713 90.1L282.372 87.4167L282.357 87.4239L282.343 87.4313L283.713 90.1ZM288.363 85.6L285.802 84.0382L285.788 84.0612L285.774 84.0845L288.363 85.6ZM288.363 70.075L285.774 71.5905L285.788 71.6138L285.802 71.6368L288.363 70.075ZM283.713 65.65L282.343 68.3187L282.386 68.3406L282.429 68.3612L283.713 65.65ZM271.863 65.65L273.176 68.3477L273.191 68.3406L273.205 68.3333L271.863 65.65ZM267.288 70.075L264.699 68.5595L264.699 68.5595L267.288 70.075ZM267.288 85.6L264.699 87.1155L264.699 87.1155L267.288 85.6ZM271.863 90.1L270.493 92.7687L270.507 92.7761L270.522 92.7833L271.863 90.1ZM277.863 94.75C274.453 94.75 271.604 94.023 269.222 92.6675L266.255 97.8825C269.673 99.827 273.574 100.75 277.863 100.75V94.75ZM269.222 92.6675C266.825 91.3036 264.974 89.3977 263.636 86.8882L258.341 89.7118C260.203 93.2023 262.852 95.9464 266.255 97.8825L269.222 92.6675ZM263.663 86.9408C262.355 84.3675 261.663 81.3692 261.663 77.875H255.663C255.663 82.1808 256.522 86.1325 258.314 89.6591L263.663 86.9408ZM261.663 77.875C261.663 74.3796 262.356 71.4147 263.654 68.9021L258.323 66.1479C256.521 69.6353 255.663 73.5704 255.663 77.875H261.663ZM263.645 68.9186C264.987 66.3599 266.838 64.439 269.222 63.0825L266.255 57.8675C262.839 59.811 260.19 62.5901 258.332 66.1314L263.645 68.9186ZM269.222 63.0825C271.604 61.727 274.453 61 277.863 61V55C273.574 55 269.673 55.923 266.255 57.8675L269.222 63.0825ZM277.863 61C281.217 61 284.042 61.7237 286.43 63.0825L289.397 57.8675C285.985 55.9262 282.11 55 277.863 55V61ZM286.43 63.0825C288.814 64.439 290.665 66.3599 292.007 68.9186L297.32 66.1314C295.462 62.5901 292.813 59.811 289.397 57.8675L286.43 63.0825ZM292.016 68.9368C293.353 71.4421 294.063 74.3944 294.063 77.875H300.063C300.063 73.5556 299.174 69.6079 297.311 66.1132L292.016 68.9368ZM294.063 77.875C294.063 81.3544 293.353 84.3403 292.007 86.9064L297.32 89.6936C299.174 86.1597 300.063 82.1955 300.063 77.875H294.063ZM292.016 86.8882C290.678 89.3977 288.827 91.3036 286.43 92.6675L289.397 97.8825C292.8 95.9464 295.449 93.2023 297.311 89.7118L292.016 86.8882ZM286.43 92.6675C284.042 94.0263 281.217 94.75 277.863 94.75V100.75C282.11 100.75 285.985 99.8237 289.397 97.8825L286.43 92.6675ZM277.863 94.525C280.397 94.525 282.816 93.9332 285.084 92.7687L282.343 87.4313C280.911 88.1668 279.43 88.525 277.863 88.525V94.525ZM285.055 92.7833C287.535 91.5431 289.495 89.6061 290.953 87.1155L285.774 84.0845C284.832 85.6939 283.691 86.7569 282.372 87.4167L285.055 92.7833ZM290.925 87.1618C292.538 84.5161 293.238 81.3331 293.238 77.8H287.238C287.238 80.5669 286.689 82.5839 285.802 84.0382L290.925 87.1618ZM293.238 77.8C293.238 74.3066 292.534 71.1521 290.925 68.5132L285.802 71.6368C286.693 73.0979 287.238 75.0934 287.238 77.8H293.238ZM290.953 68.5595C289.489 66.0588 287.512 64.1298 284.998 62.9388L282.429 68.3612C283.715 68.9702 284.838 69.9912 285.774 71.5905L290.953 68.5595ZM285.084 62.9813C282.816 61.8168 280.397 61.225 277.863 61.225V67.225C279.43 67.225 280.911 67.5832 282.343 68.3187L285.084 62.9813ZM277.863 61.225C275.292 61.225 272.833 61.8109 270.522 62.9667L273.205 68.3333C274.694 67.5891 276.235 67.225 277.863 67.225V61.225ZM270.551 62.9523C268.089 64.1499 266.151 66.0792 264.699 68.5595L269.878 71.5905C270.826 69.9708 271.938 68.9501 273.176 68.3477L270.551 62.9523ZM264.699 68.5595C263.16 71.189 262.488 74.3258 262.488 77.8H268.488C268.488 75.0742 269.017 73.061 269.878 71.5905L264.699 68.5595ZM262.488 77.8C262.488 81.3142 263.156 84.4795 264.699 87.1155L269.878 84.0845C269.021 82.6205 268.488 80.5858 268.488 77.8H262.488ZM264.699 87.1155C266.146 89.5862 268.066 91.5225 270.493 92.7687L273.234 87.4313C271.961 86.7775 270.831 85.7138 269.878 84.0845L264.699 87.1155ZM270.522 92.7833C272.833 93.9391 275.292 94.525 277.863 94.525V88.525C276.235 88.525 274.694 88.1609 273.205 87.4167L270.522 92.7833ZM307.593 96.4L309.715 94.2787L309.715 94.2787L307.593 96.4ZM307.593 59.425L309.715 61.5463L309.754 61.507L309.792 61.4663L307.593 59.425ZM312.393 59.425L310.195 61.4663L310.271 61.5478L310.352 61.6234L312.393 59.425ZM313.443 65.05H310.443V74.1015L315.849 66.8418L313.443 65.05ZM327.918 58.975L325.714 61.0098L325.755 61.0539L325.797 61.0963L327.918 58.975ZM327.918 63.7L325.884 61.4956L325.884 61.4956L327.918 63.7ZM318.468 66.4L319.964 69.0007L319.988 68.9868L320.012 68.9725L318.468 66.4ZM313.443 71.2L310.938 69.55L310.443 70.3009V71.2H313.443ZM312.393 96.4L310.352 94.2016L310.311 94.2394L310.272 94.2787L312.393 96.4ZM309.993 94.375C309.867 94.375 309.817 94.3547 309.81 94.3519C309.805 94.3498 309.775 94.3388 309.715 94.2787L305.472 98.5213C306.705 99.7546 308.277 100.375 309.993 100.375V94.375ZM309.715 94.2787C309.655 94.2186 309.644 94.1884 309.642 94.1834C309.639 94.1763 309.618 94.1268 309.618 94H303.618C303.618 95.7159 304.239 97.288 305.472 98.5213L309.715 94.2787ZM309.618 94V61.825H303.618V94H309.618ZM309.618 61.825C309.618 61.6982 309.639 61.6487 309.642 61.6416C309.644 61.6366 309.655 61.6064 309.715 61.5463L305.472 57.3037C304.239 58.537 303.618 60.1091 303.618 61.825H309.618ZM309.792 61.4663C309.83 61.4253 309.856 61.4044 309.869 61.3954C309.875 61.3908 309.879 61.3883 309.881 61.3873C309.882 61.3867 309.883 61.3864 309.883 61.3862C309.883 61.386 309.883 61.386 309.883 61.386C309.883 61.386 309.883 61.3859 309.884 61.3858C309.884 61.3858 309.884 61.3856 309.885 61.3853C309.887 61.3849 309.891 61.3837 309.897 61.3824C309.91 61.3798 309.941 61.375 309.993 61.375V55.375C308.204 55.375 306.609 56.0762 305.395 57.3836L309.792 61.4663ZM309.993 61.375C310.046 61.375 310.076 61.3798 310.089 61.3824C310.096 61.3837 310.1 61.3849 310.102 61.3853C310.102 61.3856 310.103 61.3858 310.103 61.3858C310.103 61.3859 310.103 61.386 310.103 61.386C310.103 61.386 310.104 61.386 310.104 61.3862C310.104 61.3864 310.105 61.3867 310.106 61.3873C310.108 61.3883 310.112 61.3908 310.118 61.3954C310.131 61.4044 310.157 61.4253 310.195 61.4663L314.592 57.3836C313.378 56.0762 311.783 55.375 309.993 55.375V61.375ZM310.352 61.6234C310.393 61.6615 310.414 61.6877 310.423 61.7002C310.428 61.7066 310.43 61.7107 310.431 61.7125C310.432 61.7135 310.432 61.7141 310.432 61.7145C310.432 61.7148 310.432 61.7149 310.432 61.715C310.432 61.715 310.432 61.7151 310.433 61.7153C310.433 61.7155 310.433 61.716 310.433 61.7168C310.433 61.7183 310.435 61.7222 310.436 61.729C310.439 61.742 310.443 61.7724 310.443 61.825H316.443C316.443 60.0356 315.742 58.4407 314.435 57.2266L310.352 61.6234ZM310.443 61.825V65.05H316.443V61.825H310.443ZM315.849 66.8418C318.996 62.6165 322.123 61 325.218 61V55C319.613 55 314.891 58.0835 311.037 63.2582L315.849 66.8418ZM325.218 61H325.593V55H325.218V61ZM325.593 61C325.66 61 325.699 61.0056 325.718 61.0091C325.735 61.0123 325.736 61.0142 325.727 61.0103C325.717 61.0063 325.707 61.0006 325.7 60.9956C325.694 60.9909 325.699 60.9932 325.714 61.0098L330.123 56.9402C328.909 55.6257 327.311 55 325.593 55V61ZM325.797 61.0963C325.857 61.1564 325.868 61.1866 325.87 61.1916C325.873 61.1987 325.893 61.2482 325.893 61.375H331.893C331.893 59.6591 331.273 58.087 330.04 56.8537L325.797 61.0963ZM325.893 61.375C325.893 61.4413 325.888 61.4811 325.884 61.4992C325.881 61.5166 325.879 61.5179 325.883 61.5086C325.887 61.4989 325.893 61.4889 325.898 61.4819C325.902 61.4753 325.9 61.4802 325.884 61.4956L329.953 65.9044C331.268 64.6911 331.893 63.0929 331.893 61.375H325.893ZM325.884 61.4956C325.861 61.5165 325.795 61.6 325.443 61.6V67.6C327.092 67.6 328.676 67.0835 329.953 65.9044L325.884 61.4956ZM325.443 61.6H325.068V67.6H325.443V61.6ZM325.068 61.6C322.141 61.6 319.405 62.3394 316.925 63.8275L320.012 68.9725C321.532 68.0606 323.196 67.6 325.068 67.6V61.6ZM316.973 63.7993C314.541 65.1978 312.529 67.1342 310.938 69.55L315.949 72.85C317.058 71.1658 318.396 69.9022 319.964 69.0007L316.973 63.7993ZM310.443 71.2V94H316.443V71.2H310.443ZM310.443 94C310.443 94.0526 310.439 94.083 310.436 94.096C310.435 94.1028 310.433 94.1067 310.433 94.1082C310.433 94.109 310.433 94.1095 310.433 94.1097C310.432 94.1099 310.432 94.11 310.432 94.11C310.432 94.1101 310.432 94.1102 310.432 94.1105C310.432 94.1108 310.432 94.1115 310.431 94.1125C310.43 94.1143 310.428 94.1184 310.423 94.1248C310.414 94.1373 310.393 94.1635 310.352 94.2016L314.435 98.5984C315.742 97.3843 316.443 95.7894 316.443 94H310.443ZM310.272 94.2787C310.212 94.3388 310.182 94.3498 310.177 94.3519C310.17 94.3547 310.12 94.375 309.993 94.375V100.375C311.709 100.375 313.281 99.7546 314.515 98.5213L310.272 94.2787ZM337.654 96.4L339.776 94.2787L339.776 94.2787L337.654 96.4ZM337.654 45.325L339.776 47.4463L339.815 47.4071L339.853 47.3664L337.654 45.325ZM342.454 45.325L340.256 47.3664L340.332 47.4478L340.413 47.5234L342.454 45.325ZM342.454 96.4L340.413 94.2016L340.372 94.2394L340.333 94.2787L342.454 96.4ZM340.054 94.375C339.927 94.375 339.878 94.3547 339.871 94.3519C339.866 94.3498 339.836 94.3388 339.776 94.2787L335.533 98.5213C336.766 99.7546 338.338 100.375 340.054 100.375V94.375ZM339.776 94.2787C339.716 94.2186 339.705 94.1884 339.702 94.1834C339.7 94.1763 339.679 94.1268 339.679 94H333.679C333.679 95.7159 334.3 97.288 335.533 98.5213L339.776 94.2787ZM339.679 94V47.725H333.679V94H339.679ZM339.679 47.725C339.679 47.5982 339.7 47.5487 339.702 47.5416C339.705 47.5366 339.716 47.5064 339.776 47.4463L335.533 43.2037C334.3 44.437 333.679 46.0091 333.679 47.725H339.679ZM339.853 47.3664C339.891 47.3253 339.917 47.3044 339.929 47.2955C339.936 47.2908 339.94 47.2883 339.942 47.2873C339.943 47.2867 339.943 47.2864 339.944 47.2862C339.944 47.2861 339.944 47.286 339.944 47.286C339.944 47.286 339.944 47.2859 339.945 47.2858C339.945 47.2858 339.945 47.2856 339.946 47.2853C339.948 47.2849 339.951 47.2837 339.958 47.2824C339.971 47.2798 340.002 47.275 340.054 47.275V41.275C338.265 41.275 336.67 41.9762 335.456 43.2836L339.853 47.3664ZM340.054 47.275C340.107 47.275 340.137 47.2798 340.15 47.2824C340.157 47.2837 340.161 47.2849 340.163 47.2853C340.163 47.2856 340.164 47.2858 340.164 47.2858C340.164 47.2859 340.164 47.286 340.164 47.286C340.164 47.286 340.165 47.2861 340.165 47.2862C340.165 47.2864 340.166 47.2867 340.167 47.2873C340.169 47.2883 340.173 47.2908 340.179 47.2955C340.192 47.3044 340.218 47.3253 340.256 47.3664L344.653 43.2836C343.439 41.9762 341.844 41.275 340.054 41.275V47.275ZM340.413 47.5234C340.454 47.5615 340.475 47.5877 340.484 47.6002C340.489 47.6066 340.491 47.6107 340.492 47.6125C340.493 47.6135 340.493 47.6142 340.493 47.6145C340.493 47.6148 340.493 47.6149 340.493 47.615C340.493 47.615 340.493 47.6151 340.493 47.6153C340.494 47.6155 340.494 47.616 340.494 47.6168C340.494 47.6183 340.496 47.6222 340.497 47.629C340.5 47.642 340.504 47.6724 340.504 47.725H346.504C346.504 45.9356 345.803 44.3407 344.496 43.1266L340.413 47.5234ZM340.504 47.725V94H346.504V47.725H340.504ZM340.504 94C340.504 94.0526 340.5 94.083 340.497 94.096C340.496 94.1028 340.494 94.1067 340.494 94.1082C340.494 94.109 340.494 94.1095 340.493 94.1097C340.493 94.1099 340.493 94.11 340.493 94.11C340.493 94.1101 340.493 94.1102 340.493 94.1105C340.493 94.1108 340.493 94.1115 340.492 94.1125C340.491 94.1143 340.489 94.1184 340.484 94.1248C340.475 94.1373 340.454 94.1635 340.413 94.2016L344.496 98.5984C345.803 97.3843 346.504 95.7894 346.504 94H340.504ZM340.333 94.2787C340.273 94.3388 340.243 94.3498 340.238 94.3519C340.231 94.3547 340.181 94.375 340.054 94.375V100.375C341.77 100.375 343.342 99.7546 344.576 98.5213L340.333 94.2787ZM356.959 96.4L359.08 94.2787L359.08 94.2787L356.959 96.4ZM356.959 59.425L359.08 61.5463L359.119 61.507L359.157 61.4663L356.959 59.425ZM361.759 59.425L359.56 61.4663L359.636 61.5478L359.717 61.6234L361.759 59.425ZM362.809 64.9H359.809V72.6873L365.033 66.9127L362.809 64.9ZM383.884 59.95L382.249 62.4653L382.263 62.4745L382.277 62.4835L383.884 59.95ZM388.534 65.275L385.815 66.5437L385.827 66.5682L385.838 66.5926L388.534 65.275ZM389.134 96.4L387.092 94.2016L387.052 94.2394L387.012 94.2787L389.134 96.4ZM384.334 96.4L382.212 98.5213L382.212 98.5213L384.334 96.4ZM368.359 66.25L366.724 63.7347L366.709 63.7442L366.694 63.7538L368.359 66.25ZM362.809 71.5L360.461 69.6324L359.809 70.4523V71.5H362.809ZM361.759 96.4L359.717 94.2016L359.677 94.2394L359.637 94.2787L361.759 96.4ZM359.359 94.375C359.232 94.375 359.182 94.3547 359.175 94.3519C359.17 94.3498 359.14 94.3388 359.08 94.2787L354.837 98.5213C356.071 99.7546 357.643 100.375 359.359 100.375V94.375ZM359.08 94.2787C359.02 94.2186 359.009 94.1884 359.007 94.1834C359.004 94.1763 358.984 94.1268 358.984 94H352.984C352.984 95.7159 353.604 97.288 354.837 98.5213L359.08 94.2787ZM358.984 94V61.825H352.984V94H358.984ZM358.984 61.825C358.984 61.6982 359.004 61.6487 359.007 61.6416C359.009 61.6366 359.02 61.6064 359.08 61.5463L354.837 57.3037C353.604 58.537 352.984 60.1091 352.984 61.825H358.984ZM359.157 61.4663C359.195 61.4253 359.221 61.4044 359.234 61.3954C359.24 61.3908 359.244 61.3883 359.246 61.3873C359.247 61.3867 359.248 61.3864 359.248 61.3862C359.248 61.386 359.249 61.386 359.249 61.386C359.249 61.386 359.249 61.3859 359.249 61.3858C359.249 61.3858 359.25 61.3856 359.25 61.3853C359.252 61.3849 359.256 61.3837 359.263 61.3824C359.276 61.3798 359.306 61.375 359.359 61.375V55.375C357.569 55.375 355.974 56.0762 354.76 57.3836L359.157 61.4663ZM359.359 61.375C359.411 61.375 359.442 61.3798 359.455 61.3824C359.461 61.3837 359.465 61.3849 359.467 61.3853C359.468 61.3856 359.468 61.3858 359.468 61.3858C359.469 61.3859 359.469 61.386 359.469 61.386C359.469 61.386 359.469 61.386 359.469 61.3862C359.469 61.3864 359.47 61.3867 359.471 61.3873C359.473 61.3883 359.477 61.3908 359.483 61.3954C359.496 61.4044 359.522 61.4253 359.56 61.4663L363.957 57.3836C362.743 56.0762 361.148 55.375 359.359 55.375V61.375ZM359.717 61.6234C359.758 61.6615 359.779 61.6877 359.788 61.7002C359.793 61.7066 359.795 61.7107 359.796 61.7125C359.797 61.7135 359.797 61.7141 359.797 61.7145C359.798 61.7148 359.798 61.7149 359.798 61.715C359.798 61.715 359.798 61.7151 359.798 61.7153C359.798 61.7155 359.798 61.716 359.798 61.7168C359.799 61.7183 359.8 61.7222 359.801 61.729C359.804 61.742 359.809 61.7724 359.809 61.825H365.809C365.809 60.0356 365.107 58.4407 363.8 57.2266L359.717 61.6234ZM359.809 61.825V64.9H365.809V61.825H359.809ZM365.033 66.9127C366.744 65.0216 368.549 63.558 370.441 62.4834L367.477 57.2666C364.968 58.692 362.673 60.5784 360.584 62.8873L365.033 66.9127ZM370.441 62.4834C372.112 61.534 374.181 61 376.759 61V55C373.336 55 370.206 55.716 367.477 57.2666L370.441 62.4834ZM376.759 61C379.019 61 380.806 61.5278 382.249 62.4653L385.519 57.4347C382.961 55.7722 379.998 55 376.759 55V61ZM382.277 62.4835C383.832 63.4694 385.001 64.8002 385.815 66.5437L391.252 64.0063C389.966 61.2498 388.036 59.0306 385.49 57.4165L382.277 62.4835ZM385.838 66.5926C386.722 68.4009 387.184 70.4203 387.184 72.7H393.184C393.184 69.5797 392.545 66.6491 391.229 63.9574L385.838 66.5926ZM387.184 72.7V94H393.184V72.7H387.184ZM387.184 94C387.184 94.0526 387.179 94.083 387.176 94.096C387.175 94.1028 387.174 94.1067 387.173 94.1082C387.173 94.109 387.173 94.1095 387.173 94.1097C387.173 94.1099 387.173 94.11 387.173 94.11C387.173 94.1101 387.173 94.1102 387.172 94.1105C387.172 94.1108 387.172 94.1115 387.171 94.1125C387.17 94.1143 387.168 94.1184 387.163 94.1248C387.154 94.1373 387.133 94.1635 387.092 94.2016L391.175 98.5984C392.482 97.3843 393.184 95.7894 393.184 94H387.184ZM387.012 94.2787C386.952 94.3388 386.922 94.3498 386.917 94.3519C386.91 94.3547 386.86 94.375 386.734 94.375V100.375C388.449 100.375 390.022 99.7546 391.255 98.5213L387.012 94.2787ZM386.734 94.375C386.607 94.375 386.557 94.3547 386.55 94.3519C386.545 94.3498 386.515 94.3388 386.455 94.2787L382.212 98.5213C383.446 99.7546 385.018 100.375 386.734 100.375V94.375ZM386.455 94.2787C386.395 94.2186 386.384 94.1884 386.382 94.1834C386.379 94.1763 386.359 94.1268 386.359 94H380.359C380.359 95.7159 380.979 97.288 382.212 98.5213L386.455 94.2787ZM386.359 94V73.45H380.359V94H386.359ZM386.359 73.45C386.359 70.0099 385.59 66.8696 383.524 64.5786C381.405 62.2285 378.406 61.3 375.109 61.3V67.3C377.311 67.3 378.437 67.8965 379.068 68.5964C379.752 69.3554 380.359 70.7901 380.359 73.45H386.359ZM375.109 61.3C372.058 61.3 369.234 62.1027 366.724 63.7347L369.994 68.7653C371.483 67.7973 373.16 67.3 375.109 67.3V61.3ZM366.694 63.7538C364.44 65.2571 362.367 67.2357 360.461 69.6324L365.156 73.3676C366.75 71.3643 368.378 69.8429 370.023 68.7461L366.694 63.7538ZM359.809 71.5V94H365.809V71.5H359.809ZM359.809 94C359.809 94.0526 359.804 94.083 359.801 94.096C359.8 94.1028 359.799 94.1067 359.798 94.1082C359.798 94.109 359.798 94.1095 359.798 94.1097C359.798 94.1099 359.798 94.11 359.798 94.11C359.798 94.1101 359.798 94.1102 359.797 94.1105C359.797 94.1108 359.797 94.1115 359.796 94.1125C359.795 94.1143 359.793 94.1184 359.788 94.1248C359.779 94.1373 359.758 94.1635 359.717 94.2016L363.8 98.5984C365.107 97.3843 365.809 95.7894 365.809 94H359.809ZM359.637 94.2787C359.577 94.3388 359.547 94.3498 359.542 94.3519C359.535 94.3547 359.485 94.375 359.359 94.375V100.375C361.074 100.375 362.647 99.7546 363.88 98.5213L359.637 94.2787Z" fill="black"/>
</svg>
